<?xml version="1.0" standalone="no"?><!DOCTYPE svg PUBLIC "-//W3C//DTD SVG 1.1//EN" "http://www.w3.org/Graphics/SVG/1.1/DTD/svg11.dtd"><svg height="240" node-id="1" sillyvg="true" template-height="240" template-width="240" version="1.1" viewBox="0 0 240 240" width="240" xmlns="http://www.w3.org/2000/svg" xmlns:xlink="http://www.w3.org/1999/xlink"><defs node-id="97"></defs><path d="M 80.13 161.78 C 80.13 161.78 76.07 162.00 68.93 159.84 C 67.76 159.49 65.70 160.55 64.93 161.49 C 62.77 164.14 51.65 179.64 49.38 184.40 C 49.26 184.68 49.33 185.01 49.55 185.22 C 49.77 185.43 50.11 185.48 50.38 185.34 C 53.65 183.28 62.38 180.76 68.49 182.87 L 76.20 171.87 Z" fill="#e1b66c" fill-rule="nonzero" node-id="100" stroke="none" target-height="25.988617" target-width="30.871418" target-x="49.25858" target-y="159.49"></path><path d="M 80.13 161.78 C 80.13 161.78 76.07 162.00 68.93 159.84 C 67.76 159.49 65.70 160.55 64.93 161.49 C 62.77 164.14 51.65 179.64 49.38 184.40 C 49.26 184.68 49.33 185.01 49.55 185.22 C 49.77 185.43 50.11 185.48 50.38 185.34 C 53.65 183.28 62.38 180.76 68.49 182.87 L 76.20 171.87 Z" fill="none" node-id="102" stroke="#17326f" stroke-linecap="butt" stroke-width="1.54" target-height="25.988617" target-width="30.871418" target-x="49.25858" target-y="159.49"></path><path d="M 166.61 181.25 C 166.61 181.25 174.74 182.42 182.74 191.25 C 182.95 191.49 183.28 191.58 183.58 191.47 C 183.88 191.36 184.08 191.09 184.09 190.77 L 187.81 165.48 C 188.16 163.77 188.47 162.54 187.39 161.76 C 184.39 159.62 183.85 159.35 177.99 156.61 C 176.06 155.70 168.86 155.52 166.21 156.90 C 152.21 164.17 166.61 181.25 166.61 181.25" fill="#e1b66c" fill-rule="nonzero" node-id="104" stroke="none" target-height="36.05551" target-width="36.259995" target-x="152.21" target-y="155.52"></path><path d="M 166.61 181.25 C 166.61 181.25 174.74 182.42 182.74 191.25 C 182.95 191.49 183.28 191.58 183.58 191.47 C 183.88 191.36 184.08 191.09 184.09 190.77 L 187.81 165.48 C 188.16 163.77 188.47 162.54 187.39 161.76 C 184.39 159.62 183.85 159.35 177.99 156.61 C 176.06 155.70 168.86 155.52 166.21 156.90 C 152.23 164.17 166.61 181.25 166.61 181.25 Z" fill="none" node-id="106" stroke="#17326f" stroke-linecap="butt" stroke-width="1.54" target-height="36.05551" target-width="36.240005" target-x="152.23" target-y="155.52"></path><path d="M 160.74 221.09 C 160.89 223.84 164.40 226.64 166.55 224.92 C 170.02 222.14 170.55 220.11 174.90 206.92 C 174.97 206.59 174.99 206.25 174.97 205.92 L 178.21 180.69 L 157.59 168.69 Z" fill="#e1b66c" fill-rule="nonzero" node-id="108" stroke="none" target-height="57.949997" target-width="20.62001" target-x="157.59" target-y="168.69"></path><path d="M 160.74 221.09 C 160.89 223.84 164.40 226.64 166.55 224.92 C 170.02 222.14 170.55 220.11 174.90 206.92 C 174.97 206.59 174.99 206.25 174.97 205.92 L 178.21 180.69 L 157.59 168.69 Z" fill="none" node-id="110" stroke="#17326f" stroke-linecap="butt" stroke-width="1.54" target-height="57.949997" target-width="20.62001" target-x="157.59" target-y="168.69"></path><path d="M 68.52 182.87 L 76.23 171.87 C 76.45 176.13 77.28 180.35 78.68 184.38 C 78.82 184.70 78.74 185.08 78.47 185.31 C 78.20 185.54 77.82 185.57 77.52 185.38 C 75.33 184.04 71.72 182.30 68.52 182.91" fill="#e1b66c" fill-rule="nonzero" node-id="112" stroke="none" target-height="13.699036" target-width="10.303116" target-x="68.52" target-y="171.87"></path><path d="M 68.52 182.87 L 76.23 171.87 C 76.45 176.13 77.28 180.35 78.68 184.38 C 78.82 184.70 78.74 185.08 78.47 185.31 C 78.20 185.54 77.82 185.57 77.52 185.38 C 75.33 184.00 71.72 182.26 68.52 182.87 Z" fill="none" node-id="114" stroke="#17326f" stroke-linecap="butt" stroke-width="1.54" target-height="13.699036" target-width="10.303116" target-x="68.52" target-y="171.87"></path><path d="M 194.36 99.81 L 194.36 99.81 C 195.40 99.81 196.25 98.96 196.25 97.92 L 196.25 89.84 C 196.25 88.80 195.40 87.95 194.36 87.95 C 193.32 87.95 192.47 88.80 192.47 89.84 L 192.47 97.92 C 192.47 98.96 193.32 99.81 194.36 99.81" fill="#ffffff" fill-rule="nonzero" node-id="116" stroke="none" target-height="11.860001" target-width="3.7799988" target-x="192.47" target-y="87.95"></path><path d="M 194.36 99.81 L 194.36 99.81 C 195.40 99.81 196.25 98.96 196.25 97.92 L 196.25 89.84 C 196.25 88.80 195.40 87.95 194.36 87.95 C 193.32 87.95 192.47 88.80 192.47 89.84 L 192.47 97.92 C 192.47 98.96 193.32 99.81 194.36 99.81 Z" fill="none" node-id="118" stroke="#17326f" stroke-linecap="round" stroke-width="1.64" target-height="11.860001" target-width="3.7799988" target-x="192.47" target-y="87.95"></path><path d="M 133.33 13.85 C 126.07 13.86 120.19 19.74 120.19 27.00 C 120.19 20.71 115.73 15.30 109.55 14.10 C 103.37 12.90 97.21 16.25 94.86 22.09 C 92.51 27.93 94.63 34.61 99.91 38.03 C 105.19 41.45 112.16 40.65 116.52 36.11 L 116.52 47.00 L 123.87 47.00 L 123.87 36.11 C 128.02 40.41 134.55 41.37 139.76 38.45 C 144.97 35.52 147.55 29.45 146.04 23.67 C 144.53 17.88 139.31 13.85 133.33 13.85 M 107.05 35.05 C 103.78 35.05 100.84 33.08 99.60 30.06 C 98.35 27.04 99.05 23.57 101.37 21.27 C 103.69 18.97 107.17 18.29 110.18 19.56 C 113.19 20.83 115.13 23.78 115.11 27.05 C 115.08 31.48 111.48 35.06 107.05 35.05 M 133.33 35.05 C 130.06 35.05 127.12 33.08 125.88 30.06 C 124.63 27.04 125.33 23.57 127.65 21.27 C 129.97 18.97 133.45 18.29 136.46 19.56 C 139.47 20.83 141.41 23.78 141.39 27.05 C 141.39 29.18 140.54 31.23 139.03 32.73 C 137.51 34.23 135.46 35.07 133.33 35.05" fill="#ffffff" fill-rule="nonzero" node-id="120" stroke="none" target-height="34.096592" target-width="55.04367" target-x="92.51045" target-y="12.903409"></path><path d="M 133.33 13.85 C 126.07 13.86 120.19 19.74 120.19 27.00 C 120.19 20.71 115.73 15.30 109.55 14.10 C 103.37 12.90 97.21 16.25 94.86 22.09 C 92.51 27.93 94.63 34.61 99.91 38.03 C 105.19 41.45 112.16 40.65 116.52 36.11 L 116.52 47.00 L 123.87 47.00 L 123.87 36.11 C 128.02 40.41 134.55 41.37 139.76 38.45 C 144.97 35.52 147.55 29.45 146.04 23.67 C 144.53 17.88 139.31 13.85 133.33 13.85 Z M 107.05 35.05 C 103.78 35.05 100.84 33.08 99.60 30.06 C 98.35 27.04 99.05 23.57 101.37 21.27 C 103.69 18.97 107.17 18.29 110.18 19.56 C 113.19 20.83 115.13 23.78 115.11 27.05 C 115.08 31.48 111.48 35.06 107.05 35.05 Z M 133.33 35.05 C 130.06 35.05 127.12 33.08 125.88 30.06 C 124.63 27.04 125.33 23.57 127.65 21.27 C 129.97 18.97 133.45 18.29 136.46 19.56 C 139.47 20.83 141.41 23.78 141.39 27.05 C 141.39 29.18 140.54 31.23 139.03 32.73 C 137.51 34.23 135.46 35.07 133.33 35.05 Z" fill="none" node-id="122" stroke="#17326f" stroke-linecap="round" stroke-width="1.64" target-height="34.096592" target-width="55.04367" target-x="92.51045" target-y="12.903409"></path><path d="M 145.43 93.88 C 145.43 94.48 144.95 94.96 144.35 94.96 C 143.75 94.96 143.27 94.48 143.27 93.88 C 143.27 93.28 143.75 92.80 144.35 92.80 C 144.95 92.80 145.43 93.28 145.43 93.88" fill="#ffffff" fill-rule="nonzero" node-id="124" stroke="none" target-height="2.159996" target-width="2.1599884" target-x="143.27" target-y="92.8"></path><path d="M 178.40 140.85 L 62.00 140.85 C 59.44 140.84 57.38 138.77 57.37 136.21 L 57.37 51.55 C 57.38 48.99 59.44 46.92 62.00 46.91 L 178.40 46.91 C 180.94 46.94 182.99 49.01 183.00 51.55 L 183.00 136.21 C 182.99 138.77 180.93 140.84 178.37 140.85" fill="#ffffff" fill-rule="nonzero" node-id="126" stroke="none" target-height="93.94" target-width="125.630005" target-x="57.37" target-y="46.91"></path><path d="M 61.99 46.91 L 178.41 46.91 C 180.97 46.91 183.04 48.98 183.04 51.54 L 183.04 136.21 C 183.04 138.77 180.97 140.84 178.41 140.84 L 61.99 140.84 C 59.43 140.84 57.36 138.77 57.36 136.21 L 57.36 51.54 C 57.36 48.98 59.43 46.91 61.99 46.91 Z" fill="none" node-id="128" stroke="#17326f" stroke-linecap="butt" stroke-width="1.64" target-height="93.92999" target-width="125.67999" target-x="57.36" target-y="46.91"></path><path d="M 163.00 56.88 L 120.75 65.06 C 120.42 65.12 120.08 65.12 119.75 65.06 L 77.41 56.88 C 75.47 56.50 73.70 58.25 73.70 60.54 L 73.70 127.22 C 73.70 129.51 75.47 131.22 77.41 130.88 L 119.67 122.73 C 120.00 122.67 120.34 122.67 120.67 122.73 L 163.00 130.88 C 164.94 131.26 166.71 129.51 166.71 127.22 L 166.71 60.54 C 166.71 58.25 164.94 56.54 162.99 56.88" fill="#ffffff" fill-rule="nonzero" node-id="130" stroke="none" target-height="74.759995" target-width="93.01001" target-x="73.7" target-y="56.5"></path><path d="M 163.00 56.88 L 120.75 65.06 C 120.42 65.12 120.08 65.12 119.75 65.06 L 77.41 56.88 C 75.47 56.50 73.70 58.25 73.70 60.54 L 73.70 127.22 C 73.70 129.51 75.47 131.22 77.41 130.88 L 119.67 122.73 C 120.00 122.67 120.34 122.67 120.67 122.73 L 163.00 130.88 C 164.94 131.26 166.71 129.51 166.71 127.22 L 166.71 60.54 C 166.69 58.25 164.92 56.50 163.00 56.88 Z" fill="none" node-id="132" stroke="#17326f" stroke-linecap="butt" stroke-width="1.64" target-height="74.759995" target-width="93.01001" target-x="73.7" target-y="56.5"></path><path d="M 52.91 108.81 L 51.58 108.81 C 49.34 108.80 47.53 106.99 47.52 104.75 L 47.52 83.00 C 47.56 80.79 49.37 79.01 51.58 79.00 L 52.91 79.00 C 55.14 78.99 56.96 80.77 57.00 83.00 L 57.00 104.74 C 56.99 106.98 55.18 108.79 52.94 108.80" fill="#ffffff" fill-rule="nonzero" node-id="134" stroke="none" target-height="29.81588" target-width="9.48" target-x="47.52" target-y="78.99412"></path><path d="M 51.58 78.95 L 52.90 78.95 C 55.14 78.95 56.96 80.77 56.96 83.01 L 56.96 104.75 C 56.96 106.99 55.14 108.81 52.90 108.81 L 51.58 108.81 C 49.34 108.81 47.52 106.99 47.52 104.75 L 47.52 83.01 C 47.52 80.77 49.34 78.95 51.58 78.95 Z" fill="none" node-id="136" stroke="#17326f" stroke-linecap="round" stroke-width="1.64" target-height="29.86" target-width="9.439999" target-x="47.52" target-y="78.95"></path><path d="M 45.64 99.81 L 45.64 99.81 C 44.60 99.81 43.75 98.96 43.75 97.92 L 43.75 89.84 C 43.70 89.13 44.05 88.46 44.65 88.09 C 45.26 87.72 46.01 87.72 46.62 88.09 C 47.22 88.46 47.57 89.13 47.52 89.84 L 47.52 97.92 C 47.52 98.96 46.68 99.80 45.64 99.81" fill="#ffffff" fill-rule="nonzero" node-id="138" stroke="none" target-height="12.089584" target-width="3.8729439" target-x="43.69853" target-y="87.72041"></path><path d="M 45.64 99.81 L 45.64 99.81 C 44.60 99.81 43.75 98.96 43.75 97.92 L 43.75 89.84 C 43.70 89.13 44.05 88.46 44.65 88.09 C 45.26 87.72 46.01 87.72 46.62 88.09 C 47.22 88.46 47.57 89.13 47.52 89.84 L 47.52 97.92 C 47.52 98.96 46.68 99.80 45.64 99.81 Z" fill="none" node-id="140" stroke="#17326f" stroke-linecap="round" stroke-width="1.64" target-height="12.089584" target-width="3.8729439" target-x="43.69853" target-y="87.72041"></path><path d="M 187.09 78.95 L 188.41 78.95 C 190.65 78.95 192.47 80.77 192.47 83.01 L 192.47 104.75 C 192.47 106.99 190.65 108.81 188.41 108.81 L 187.09 108.81 C 184.85 108.81 183.03 106.99 183.03 104.75 L 183.03 83.01 C 183.03 80.77 184.85 78.95 187.09 78.95 Z" fill="none" node-id="142" stroke="#17326f" stroke-linecap="round" stroke-width="1.64" target-height="29.86" target-width="9.440002" target-x="183.03" target-y="78.95"></path><path d="M 76.23 141.00 L 164.07 141.00 L 164.07 168.10 C 164.06 191.58 145.03 210.62 121.55 210.63 L 118.75 210.63 C 95.30 210.56 76.30 191.56 76.23 168.11 L 76.23 157.27" fill="#1956a5" fill-rule="nonzero" node-id="144" stroke="none" target-height="69.630005" target-width="87.840004" target-x="76.23" target-y="141"></path><path d="M 76.23 141.00 L 164.07 141.00 L 164.07 168.10 C 164.06 191.58 145.03 210.62 121.55 210.63 L 118.75 210.63 C 95.30 210.56 76.30 191.56 76.23 168.11 L 76.23 157.27" fill="none" node-id="146" stroke="#17326f" stroke-linecap="round" stroke-width="1.64" target-height="69.630005" target-width="87.840004" target-x="76.23" target-y="141"></path><path d="M 102.75 152.41 L 76.23 141.03 L 110.51 141.03 L 102.75 152.41 Z" fill="#ffffff" fill-rule="nonzero" node-id="148" stroke="none" target-height="11.380005" target-width="34.28" target-x="76.23" target-y="141.03"></path><path d="M 102.75 152.41 L 76.23 141.03 L 110.51 141.03 L 102.75 152.41 Z" fill="none" node-id="150" stroke="#17326f" stroke-linecap="round" stroke-width="1.64" target-height="11.380005" target-width="34.28" target-x="76.23" target-y="141.03"></path><path d="M 137.54 152.41 L 164.07 141.03 L 129.79 141.03 L 137.54 152.41 Z" fill="#ffffff" fill-rule="nonzero" node-id="152" stroke="none" target-height="11.380005" target-width="34.280014" target-x="129.79" target-y="141.03"></path><path d="M 137.54 152.41 L 164.07 141.03 L 129.79 141.03 L 137.54 152.41 Z" fill="none" node-id="154" stroke="#17326f" stroke-linecap="round" stroke-width="1.64" target-height="11.380005" target-width="34.280014" target-x="129.79" target-y="141.03"></path><path d="M 90.20 87.66 C 90.20 87.66 90.53 82.06 96.29 81.99 C 100.54 81.99 102.02 84.40 102.39 87.66" fill="none" node-id="156" stroke="#17326f" stroke-linecap="round" stroke-width="3.14" target-height="5.670006" target-width="12.190002" target-x="90.2" target-y="81.99"></path><path d="M 137.78 87.66 C 137.78 87.66 138.11 82.06 143.88 81.99 C 148.13 81.99 149.60 84.40 149.98 87.66" fill="none" node-id="158" stroke="#17326f" stroke-linecap="round" stroke-width="3.14" target-height="5.670006" target-width="12.199997" target-x="137.78" target-y="81.99"></path><path d="M 96.00 95.64 C 96.00 97.03 92.33 98.16 87.79 98.16 C 83.25 98.16 79.54 97.00 79.54 95.64 C 79.54 94.28 83.22 93.13 87.75 93.13 C 92.28 93.13 96.00 94.25 96.00 95.64" fill="#dedede" fill-rule="nonzero" node-id="160" stroke="none" target-height="5.0300064" target-width="16.46" target-x="79.54" target-y="93.13"></path><path d="M 160.84 95.64 C 160.84 97.03 157.17 98.16 152.63 98.16 C 148.09 98.16 144.43 97.03 144.43 95.64 C 144.43 94.25 148.10 93.13 152.63 93.13 C 157.16 93.13 160.84 94.25 160.84 95.64" fill="#dedede" fill-rule="nonzero" node-id="162" stroke="none" target-height="5.0300064" target-width="16.410004" target-x="144.43" target-y="93.13"></path><path d="M 77.25 163.62 C 69.74 159.36 62.78 154.19 56.53 148.23 C 46.20 138.00 39.00 124.48 51.74 117.00 C 61.68 111.21 75.67 133.00 81.02 141.73 C 82.41 143.57 84.01 145.23 85.79 146.68" fill="#1956a5" fill-rule="nonzero" node-id="164" stroke="none" target-height="52.409996" target-width="46.79" target-x="39" target-y="111.21"></path><path d="M 77.25 163.62 C 69.74 159.36 62.78 154.19 56.53 148.23 C 46.20 138.00 39.00 124.48 51.74 117.00 C 61.68 111.21 75.67 133.00 81.02 141.73 C 82.41 143.57 84.01 145.23 85.79 146.68" fill="none" node-id="166" stroke="#17326f" stroke-linecap="round" stroke-width="1.64" target-height="52.409996" target-width="46.79" target-x="39" target-y="111.21"></path><path d="M 51.74 117.00 C 41.03 123.24 44.81 134.18 51.74 142.88 C 55.86 138.24 64.21 129.93 70.74 126.95 C 64.74 119.62 57.53 113.62 51.74 117.00" fill="#4dace2" fill-rule="nonzero" node-id="168" stroke="none" target-height="29.260002" target-width="29.71" target-x="41.03" target-y="113.62"></path><path d="M 51.74 117.00 C 41.03 123.24 44.81 134.18 51.74 142.88 C 55.86 138.24 64.21 129.93 70.74 126.95 C 64.71 119.66 57.54 113.66 51.74 117.00 Z" fill="none" node-id="170" stroke="#17326f" stroke-linecap="round" stroke-width="1.64" target-height="29.220001" target-width="29.71" target-x="41.03" target-y="113.66"></path><path d="M 128.30 151.03 L 112.00 151.03 L 107.96 179.44 L 120.15 191.51 L 132.34 179.44 L 128.30 151.03 Z" fill="#ffffff" fill-rule="nonzero" node-id="172" stroke="none" target-height="40.479996" target-width="24.379997" target-x="107.96" target-y="151.03"></path><path d="M 128.30 151.03 L 112.00 151.03 L 107.96 179.44 L 120.15 191.51 L 132.34 179.44 L 128.30 151.03 Z" fill="none" node-id="174" stroke="#17326f" stroke-linecap="butt" stroke-width="1.64" target-height="40.479996" target-width="24.379997" target-x="107.96" target-y="151.03"></path><path d="M 128.30 151.03 L 112.00 151.03 L 110.51 141.03 L 129.79 141.03 L 128.30 151.03 Z" fill="#ffffff" fill-rule="nonzero" node-id="176" stroke="none" target-height="10" target-width="19.279991" target-x="110.51" target-y="141.03"></path><path d="M 128.30 151.03 L 112.00 151.03 L 110.51 141.03 L 129.79 141.03 L 128.30 151.03 Z" fill="none" node-id="178" stroke="#17326f" stroke-linecap="round" stroke-width="1.64" target-height="10" target-width="19.279991" target-x="110.51" target-y="141.03"></path><path d="M 70.00 182.74 L 69.68 182.74 L 68.94 182.63 C 68.75 182.60 68.56 182.71 68.49 182.89 C 66.58 183.50 65.34 185.33 65.49 187.33 L 74.14 222.00 C 74.17 224.21 75.93 226.02 78.14 226.11 L 164.06 225.81 C 166.24 225.73 167.98 223.99 168.06 221.81 L 170.06 188.64 C 170.15 187.67 170.18 186.70 170.15 185.73 L 170.59 184.33 C 170.59 184.33 170.34 184.18 169.85 183.93 C 169.64 183.06 168.80 182.51 167.92 182.66 Z" fill="#e1b66c" fill-rule="nonzero" node-id="180" stroke="none" target-height="43.601166" target-width="105.24583" target-x="65.34417" target-y="182.50883"></path><path d="M 70.00 182.74 L 69.68 182.74 L 68.94 182.63 C 68.75 182.60 68.56 182.71 68.49 182.89 C 66.58 183.50 65.34 185.33 65.49 187.33 L 74.14 222.00 C 74.17 224.21 75.93 226.02 78.14 226.11 L 164.06 225.81 C 166.24 225.73 167.98 223.99 168.06 221.81 L 170.06 188.64 C 170.15 187.67 170.18 186.70 170.15 185.73 L 170.59 184.33 C 170.59 184.33 170.34 184.18 169.85 183.93 C 169.64 183.06 168.80 182.51 167.92 182.66 Z" fill="none" node-id="182" stroke="#17326f" stroke-linecap="butt" stroke-width="1.54" target-height="43.601166" target-width="105.24583" target-x="65.34417" target-y="182.50883"></path><path d="M 68.12 182.87 C 68.12 182.87 61.29 186.49 59.01 201.58 C 58.94 202.04 59.06 202.51 59.35 202.87 C 59.64 203.24 60.07 203.46 60.54 203.49 C 68.30 203.95 100.08 204.49 111.40 204.60 C 123.35 204.72 152.07 204.84 158.71 205.16 C 159.51 205.20 160.22 204.66 160.39 203.88 C 162.15 196.58 164.67 189.49 167.91 182.72 Z" fill="#e1b66c" fill-rule="nonzero" node-id="184" stroke="none" target-height="22.48291" target-width="108.97432" target-x="58.935684" target-y="182.72"></path><path d="M 68.12 182.87 C 68.12 182.87 61.29 186.49 59.01 201.58 C 58.94 202.04 59.06 202.51 59.35 202.87 C 59.64 203.24 60.07 203.46 60.54 203.49 C 68.30 203.95 100.08 204.49 111.40 204.60 C 123.35 204.72 152.07 204.84 158.71 205.16 C 159.51 205.20 160.22 204.66 160.39 203.88 C 162.15 196.58 164.67 189.49 167.91 182.72 Z" fill="none" node-id="186" stroke="#17326f" stroke-linecap="butt" stroke-width="1.54" target-height="22.48291" target-width="108.97432" target-x="58.935684" target-y="182.72"></path><path d="M 163.11 177.09 C 163.69 173.79 164.66 164.70 164.02 142.09 C 167.64 144.52 178.48 152.74 182.59 166.36 L 182.59 166.42 C 182.48 166.68 182.34 166.92 182.17 167.14 C 174.57 167.13 167.46 170.87 163.17 177.14" fill="#1956a5" fill-rule="nonzero" node-id="188" stroke="none" target-height="35.050003" target-width="19.479996" target-x="163.11" target-y="142.09"></path><path d="M 164.83 143.58 C 169.13 146.71 178.06 154.37 181.76 166.28 L 181.76 166.35 C 175.08 166.46 168.75 169.36 164.30 174.35 C 164.81 169.62 165.30 160.52 164.87 143.60 M 163.24 140.66 C 164.24 172.75 162.04 178.50 162.04 178.50 C 162.04 179.02 162.32 179.60 162.34 180.10 C 166.08 172.54 173.83 167.80 182.27 167.91 C 182.82 167.91 183.15 167.00 183.46 166.44 C 178.46 149.34 163.24 140.66 163.24 140.66" fill="#17326f" fill-rule="nonzero" node-id="190" stroke="none" target-height="39.440002" target-width="21.420013" target-x="162.04" target-y="140.66"></path><path d="M 174.63 193.00 C 172.92 193.00 171.24 192.50 169.81 191.56 L 169.69 191.48 C 168.82 190.88 168.06 190.14 167.44 189.29 C 165.60 187.13 163.94 181.62 163.68 176.89 C 165.91 171.78 174.34 167.17 181.50 167.17 L 181.75 167.17 L 182.82 167.17 C 184.47 172.70 184.81 178.54 183.82 184.23 C 183.77 184.47 183.71 184.71 183.64 184.95 L 183.55 185.29 C 183.43 185.77 183.21 186.53 183.20 186.53 C 182.13 190.37 178.62 193.01 174.63 192.97" fill="#4dace2" fill-rule="nonzero" node-id="192" stroke="none" target-height="25.841766" target-width="21.129593" target-x="163.68" target-y="167.17"></path><path d="M 181.50 167.91 L 182.21 167.91 C 183.71 173.16 184.00 178.69 183.05 184.07 C 183.05 184.27 182.96 184.49 182.89 184.72 L 182.80 185.08 C 182.68 185.54 182.46 186.28 182.45 186.31 C 181.74 188.78 179.91 190.77 177.50 191.67 C 175.09 192.57 172.39 192.27 170.24 190.86 L 170.24 190.86 L 170.24 190.86 C 169.41 190.31 168.69 189.62 168.11 188.81 L 168.11 188.81 L 168.11 188.81 C 166.63 187.07 164.89 182.01 164.59 177.11 C 166.82 172.31 174.80 168.02 181.59 168.02 M 181.59 166.46 C 173.92 166.46 165.19 171.46 162.98 176.82 C 163.23 181.92 164.98 187.59 166.90 189.82 C 167.59 190.78 168.45 191.60 169.43 192.25 L 169.43 192.25 L 169.43 192.25 C 172.01 193.93 175.23 194.27 178.11 193.19 C 180.99 192.10 183.18 189.70 184.00 186.74 C 184.00 186.74 184.24 185.96 184.36 185.47 C 184.48 184.98 184.57 184.73 184.63 184.36 C 185.67 178.37 185.27 172.22 183.47 166.42 C 182.93 166.42 182.36 166.36 181.82 166.35 L 181.55 166.35" fill="#17326f" fill-rule="nonzero" node-id="194" stroke="none" target-height="27.92369" target-width="22.686401" target-x="162.98" target-y="166.35"></path><path d="M 80.13 161.78 C 80.13 161.78 76.07 162.00 68.93 159.84 C 67.76 159.49 65.70 160.55 64.93 161.49 C 62.77 164.14 51.65 179.64 49.38 184.40 C 49.26 184.68 49.33 185.01 49.55 185.22 C 49.77 185.43 50.11 185.48 50.38 185.34 C 53.65 183.28 62.38 180.76 68.49 182.87 L 76.20 171.87 Z" fill="#e9e9e9" fill-rule="nonzero" node-id="196" stroke="none" target-height="25.988617" target-width="30.871418" target-x="49.25858" target-y="159.49"></path><path d="M 80.13 161.78 C 80.13 161.78 76.07 162.00 68.93 159.84 C 67.76 159.49 65.70 160.55 64.93 161.49 C 62.77 164.14 51.65 179.64 49.38 184.40 C 49.26 184.68 49.33 185.01 49.55 185.22 C 49.77 185.43 50.11 185.48 50.38 185.34 C 53.65 183.28 62.38 180.76 68.49 182.87 L 76.20 171.87 Z" fill="none" node-id="198" stroke="#17326f" stroke-linecap="butt" stroke-width="1.54" target-height="25.988617" target-width="30.871418" target-x="49.25858" target-y="159.49"></path><path d="M 166.61 181.25 C 166.61 181.25 174.74 182.42 182.74 191.25 C 182.95 191.49 183.28 191.58 183.58 191.47 C 183.88 191.36 184.08 191.09 184.09 190.77 L 187.81 165.48 C 188.16 163.77 188.47 162.54 187.39 161.76 C 184.39 159.62 183.85 159.35 177.99 156.61 C 176.06 155.70 168.86 155.52 166.21 156.90 C 152.21 164.17 166.61 181.25 166.61 181.25" fill="#e1b66c" fill-rule="nonzero" node-id="200" stroke="none" target-height="36.05551" target-width="36.259995" target-x="152.21" target-y="155.52"></path><path d="M 166.61 181.25 C 166.61 181.25 174.74 182.42 182.74 191.25 C 182.95 191.49 183.28 191.58 183.58 191.47 C 183.88 191.36 184.08 191.09 184.09 190.77 L 187.81 165.48 C 188.16 163.77 188.47 162.54 187.39 161.76 C 184.39 159.62 183.85 159.35 177.99 156.61 C 176.06 155.70 168.86 155.52 166.21 156.90 C 152.23 164.17 166.61 181.25 166.61 181.25 Z" fill="#e9e9e9" fill-rule="nonzero" node-id="202" stroke="#17326f" stroke-linecap="butt" stroke-width="1" target-height="36.05551" target-width="36.240005" target-x="152.23" target-y="155.52"></path><path d="M 160.74 221.09 C 160.89 223.84 164.40 226.64 166.55 224.92 C 170.02 222.14 170.55 220.11 174.90 206.92 C 174.97 206.59 174.99 206.25 174.97 205.92 L 178.21 180.69 L 157.59 168.69 Z" fill="#a0a0a0" fill-rule="nonzero" node-id="204" stroke="none" target-height="57.949997" target-width="20.62001" target-x="157.59" target-y="168.69"></path><path d="M 160.74 221.09 C 160.89 223.84 164.40 226.64 166.55 224.92 C 170.02 222.14 170.55 220.11 174.90 206.92 C 174.97 206.59 174.99 206.25 174.97 205.92 L 178.21 180.69 L 157.59 168.69 Z" fill="none" node-id="206" stroke="#17326f" stroke-linecap="butt" stroke-width="1.54" target-height="57.949997" target-width="20.62001" target-x="157.59" target-y="168.69"></path><path d="M 68.52 182.87 L 76.23 171.87 C 76.45 176.13 77.28 180.35 78.68 184.38 C 78.82 184.70 78.74 185.08 78.47 185.31 C 78.20 185.54 77.82 185.57 77.52 185.38 C 75.33 184.04 71.72 182.30 68.52 182.91" fill="#e1b66c" fill-rule="nonzero" node-id="208" stroke="none" target-height="13.699036" target-width="10.303116" target-x="68.52" target-y="171.87"></path><path d="M 68.52 182.87 L 76.23 171.87 C 76.45 176.13 77.28 180.35 78.68 184.38 C 78.82 184.70 78.74 185.08 78.47 185.31 C 78.20 185.54 77.82 185.57 77.52 185.38 C 75.33 184.00 71.72 182.26 68.52 182.87 Z" fill="#a0a0a0" fill-rule="nonzero" node-id="210" stroke="none" target-height="13.699036" target-width="10.303116" target-x="68.52" target-y="171.87"></path><path d="M 194.36 99.81 L 194.36 99.81 C 195.40 99.81 196.25 98.96 196.25 97.92 L 196.25 89.84 C 196.25 88.80 195.40 87.95 194.36 87.95 C 193.32 87.95 192.47 88.80 192.47 89.84 L 192.47 97.92 C 192.47 98.96 193.32 99.81 194.36 99.81" fill="#ffffff" fill-rule="nonzero" node-id="212" stroke="none" target-height="11.860001" target-width="3.7799988" target-x="192.47" target-y="87.95"></path><path d="M 194.36 99.81 L 194.36 99.81 C 195.40 99.81 196.25 98.96 196.25 97.92 L 196.25 89.84 C 196.25 88.80 195.40 87.95 194.36 87.95 C 193.32 87.95 192.47 88.80 192.47 89.84 L 192.47 97.92 C 192.47 98.96 193.32 99.81 194.36 99.81 Z" fill="none" node-id="214" stroke="#17326f" stroke-linecap="round" stroke-width="1.64" target-height="11.860001" target-width="3.7799988" target-x="192.47" target-y="87.95"></path><path d="M 133.33 13.85 C 126.07 13.86 120.19 19.74 120.19 27.00 C 120.19 20.71 115.73 15.30 109.55 14.10 C 103.37 12.90 97.21 16.25 94.86 22.09 C 92.51 27.93 94.63 34.61 99.91 38.03 C 105.19 41.45 112.16 40.65 116.52 36.11 L 116.52 47.00 L 123.87 47.00 L 123.87 36.11 C 128.02 40.41 134.55 41.37 139.76 38.45 C 144.97 35.52 147.55 29.45 146.04 23.67 C 144.53 17.88 139.31 13.85 133.33 13.85 Z M 107.05 35.05 C 103.78 35.05 100.84 33.08 99.60 30.06 C 98.35 27.04 99.05 23.57 101.37 21.27 C 103.69 18.97 107.17 18.29 110.18 19.56 C 113.19 20.83 115.13 23.78 115.11 27.05 C 115.08 31.48 111.48 35.06 107.05 35.05 Z M 133.33 35.05 C 130.06 35.05 127.12 33.08 125.88 30.06 C 124.63 27.04 125.33 23.57 127.65 21.27 C 129.97 18.97 133.45 18.29 136.46 19.56 C 139.47 20.83 141.41 23.78 141.39 27.05 C 141.39 29.18 140.54 31.23 139.03 32.73 C 137.51 34.23 135.46 35.07 133.33 35.05 Z" fill="none" node-id="216" stroke="#17326f" stroke-linecap="round" stroke-width="1.64" target-height="34.096592" target-width="55.04367" target-x="92.51045" target-y="12.903409"></path><path d="M 145.43 93.88 C 145.43 94.48 144.95 94.96 144.35 94.96 C 143.75 94.96 143.27 94.48 143.27 93.88 C 143.27 93.28 143.75 92.80 144.35 92.80 C 144.95 92.80 145.43 93.28 145.43 93.88" fill="#ffffff" fill-rule="nonzero" node-id="218" stroke="none" target-height="2.159996" target-width="2.1599884" target-x="143.27" target-y="92.8"></path><path d="M 52.91 108.81 L 51.58 108.81 C 49.34 108.80 47.53 106.99 47.52 104.75 L 47.52 83.00 C 47.56 80.79 49.37 79.01 51.58 79.00 L 52.91 79.00 C 55.14 78.99 56.96 80.77 57.00 83.00 L 57.00 104.74 C 56.99 106.98 55.18 108.79 52.94 108.80" fill="#ffffff" fill-rule="nonzero" node-id="220" stroke="none" target-height="29.81588" target-width="9.48" target-x="47.52" target-y="78.99412"></path><path d="M 51.58 78.95 L 52.90 78.95 C 55.14 78.95 56.96 80.77 56.96 83.01 L 56.96 104.75 C 56.96 106.99 55.14 108.81 52.90 108.81 L 51.58 108.81 C 49.34 108.81 47.52 106.99 47.52 104.75 L 47.52 83.01 C 47.52 80.77 49.34 78.95 51.58 78.95 Z" fill="none" node-id="222" stroke="#17326f" stroke-linecap="round" stroke-width="1.64" target-height="29.86" target-width="9.439999" target-x="47.52" target-y="78.95"></path><path d="M 45.64 99.81 L 45.64 99.81 C 44.60 99.81 43.75 98.96 43.75 97.92 L 43.75 89.84 C 43.70 89.13 44.05 88.46 44.65 88.09 C 45.26 87.72 46.01 87.72 46.62 88.09 C 47.22 88.46 47.57 89.13 47.52 89.84 L 47.52 97.92 C 47.52 98.96 46.68 99.80 45.64 99.81" fill="#ffffff" fill-rule="nonzero" node-id="224" stroke="none" target-height="12.089584" target-width="3.8729439" target-x="43.69853" target-y="87.72041"></path><path d="M 45.64 99.81 L 45.64 99.81 C 44.60 99.81 43.75 98.96 43.75 97.92 L 43.75 89.84 C 43.70 89.13 44.05 88.46 44.65 88.09 C 45.26 87.72 46.01 87.72 46.62 88.09 C 47.22 88.46 47.57 89.13 47.52 89.84 L 47.52 97.92 C 47.52 98.96 46.68 99.80 45.64 99.81 Z" fill="none" node-id="226" stroke="#17326f" stroke-linecap="round" stroke-width="1.64" target-height="12.089584" target-width="3.8729439" target-x="43.69853" target-y="87.72041"></path><path d="M 187.09 78.95 L 188.41 78.95 C 190.65 78.95 192.47 80.77 192.47 83.01 L 192.47 104.75 C 192.47 106.99 190.65 108.81 188.41 108.81 L 187.09 108.81 C 184.85 108.81 183.03 106.99 183.03 104.75 L 183.03 83.01 C 183.03 80.77 184.85 78.95 187.09 78.95 Z" fill="none" node-id="228" stroke="#17326f" stroke-linecap="round" stroke-width="1.64" target-height="29.86" target-width="9.440002" target-x="183.03" target-y="78.95"></path><path d="M 76.23 141.00 L 164.07 141.00 L 164.07 168.10 C 164.06 191.58 145.03 210.62 121.55 210.63 L 118.75 210.63 C 95.30 210.56 76.30 191.56 76.23 168.11 L 76.23 157.27" fill="#ffffff" fill-rule="nonzero" node-id="230" stroke="none" target-height="69.630005" target-width="87.840004" target-x="76.23" target-y="141"></path><path d="M 76.23 141.00 L 164.07 141.00 L 164.07 168.10 C 164.06 191.58 145.03 210.62 121.55 210.63 L 118.75 210.63 C 95.30 210.56 76.30 191.56 76.23 168.11 L 76.23 157.27" fill="none" node-id="232" stroke="#17326f" stroke-linecap="round" stroke-width="1.64" target-height="69.630005" target-width="87.840004" target-x="76.23" target-y="141"></path><path d="M 102.75 152.41 L 76.23 141.03 L 110.51 141.03 L 102.75 152.41 Z" fill="#ffffff" fill-rule="nonzero" node-id="234" stroke="none" target-height="11.380005" target-width="34.28" target-x="76.23" target-y="141.03"></path><path d="M 102.75 152.41 L 76.23 141.03 L 110.51 141.03 L 102.75 152.41 Z" fill="none" node-id="236" stroke="#17326f" stroke-linecap="round" stroke-width="1.64" target-height="11.380005" target-width="34.28" target-x="76.23" target-y="141.03"></path><path d="M 137.54 152.41 L 164.07 141.03 L 129.79 141.03 L 137.54 152.41 Z" fill="#ffffff" fill-rule="nonzero" node-id="238" stroke="none" target-height="11.380005" target-width="34.280014" target-x="129.79" target-y="141.03"></path><path d="M 137.54 152.41 L 164.07 141.03 L 129.79 141.03 L 137.54 152.41 Z" fill="none" node-id="240" stroke="#17326f" stroke-linecap="round" stroke-width="1.64" target-height="11.380005" target-width="34.280014" target-x="129.79" target-y="141.03"></path><path d="M 77.25 163.62 C 69.74 159.36 62.78 154.19 56.53 148.23 C 46.20 138.00 39.00 124.48 51.74 117.00 C 61.68 111.21 75.67 133.00 81.02 141.73 C 82.41 143.57 84.01 145.23 85.79 146.68" fill="#ffffff" fill-rule="nonzero" node-id="242" stroke="none" target-height="52.409996" target-width="46.79" target-x="39" target-y="111.21"></path><path d="M 77.25 163.62 C 69.74 159.36 62.78 154.19 56.53 148.23 C 46.20 138.00 39.00 124.48 51.74 117.00 C 61.68 111.21 75.67 133.00 81.02 141.73 C 82.41 143.57 84.01 145.23 85.79 146.68" fill="none" node-id="244" stroke="#17326f" stroke-linecap="round" stroke-width="1.64" target-height="52.409996" target-width="46.79" target-x="39" target-y="111.21"></path><path d="M 51.74 117.00 C 41.03 123.24 44.81 134.18 51.74 142.88 C 55.86 138.24 64.21 129.93 70.74 126.95 C 64.74 119.62 57.53 113.62 51.74 117.00" fill="#ffffff" fill-rule="nonzero" node-id="246" stroke="none" target-height="29.260002" target-width="29.71" target-x="41.03" target-y="113.62"></path><path d="M 51.74 117.00 C 41.03 123.24 44.81 134.18 51.74 142.88 C 55.86 138.24 64.21 129.93 70.74 126.95 C 64.71 119.66 57.54 113.66 51.74 117.00 Z" fill="none" node-id="248" stroke="#17326f" stroke-linecap="round" stroke-width="1.64" target-height="29.220001" target-width="29.71" target-x="41.03" target-y="113.66"></path><path d="M 128.30 151.03 L 112.00 151.03 L 107.96 179.44 L 120.15 191.51 L 132.34 179.44 L 128.30 151.03 Z" fill="#ffffff" fill-rule="nonzero" node-id="250" stroke="none" target-height="40.479996" target-width="24.379997" target-x="107.96" target-y="151.03"></path><path d="M 128.30 151.03 L 112.00 151.03 L 107.96 179.44 L 120.15 191.51 L 132.34 179.44 L 128.30 151.03 Z" fill="none" node-id="252" stroke="#17326f" stroke-linecap="butt" stroke-width="1.64" target-height="40.479996" target-width="24.379997" target-x="107.96" target-y="151.03"></path><path d="M 128.30 151.03 L 112.00 151.03 L 110.51 141.03 L 129.79 141.03 L 128.30 151.03 Z" fill="#ffffff" fill-rule="nonzero" node-id="254" stroke="none" target-height="10" target-width="19.279991" target-x="110.51" target-y="141.03"></path><path d="M 128.30 151.03 L 112.00 151.03 L 110.51 141.03 L 129.79 141.03 L 128.30 151.03 Z" fill="none" node-id="256" stroke="#17326f" stroke-linecap="round" stroke-width="1.64" target-height="10" target-width="19.279991" target-x="110.51" target-y="141.03"></path><path d="M 70.00 182.74 L 69.68 182.74 L 68.94 182.63 C 68.75 182.60 68.56 182.71 68.49 182.89 C 66.58 183.50 65.34 185.33 65.49 187.33 L 74.14 222.00 C 74.17 224.21 75.93 226.02 78.14 226.11 L 164.06 225.81 C 166.24 225.73 167.98 223.99 168.06 221.81 L 170.06 188.64 C 170.15 187.67 170.18 186.70 170.15 185.73 L 170.59 184.33 C 170.59 184.33 170.34 184.18 169.85 183.93 C 169.64 183.06 168.80 182.51 167.92 182.66 Z" fill="#e9e9e9" fill-rule="nonzero" node-id="258" stroke="none" target-height="43.601166" target-width="105.24583" target-x="65.34417" target-y="182.50883"></path><path d="M 70.00 182.74 L 69.68 182.74 L 68.94 182.63 C 68.75 182.60 68.56 182.71 68.49 182.89 C 66.58 183.50 65.34 185.33 65.49 187.33 L 74.14 222.00 C 74.17 224.21 75.93 226.02 78.14 226.11 L 164.06 225.81 C 166.24 225.73 167.98 223.99 168.06 221.81 L 170.06 188.64 C 170.15 187.67 170.18 186.70 170.15 185.73 L 170.59 184.33 C 170.59 184.33 170.34 184.18 169.85 183.93 C 169.64 183.06 168.80 182.51 167.92 182.66 Z" fill="none" node-id="260" stroke="#17326f" stroke-linecap="butt" stroke-width="1.54" target-height="43.601166" target-width="105.24583" target-x="65.34417" target-y="182.50883"></path><path d="M 68.12 182.87 C 68.12 182.87 61.29 186.49 59.01 201.58 C 58.94 202.04 59.06 202.51 59.35 202.87 C 59.64 203.24 60.07 203.46 60.54 203.49 C 68.30 203.95 100.08 204.49 111.40 204.60 C 123.35 204.72 152.07 204.84 158.71 205.16 C 159.51 205.20 160.22 204.66 160.39 203.88 C 162.15 196.58 164.67 189.49 167.91 182.72 Z" fill="#e9e9e9" fill-rule="nonzero" node-id="262" stroke="none" target-height="22.48291" target-width="108.97432" target-x="58.935684" target-y="182.72"></path><path d="M 68.12 182.87 C 68.12 182.87 61.29 186.49 59.01 201.58 C 58.94 202.04 59.06 202.51 59.35 202.87 C 59.64 203.24 60.07 203.46 60.54 203.49 C 68.30 203.95 100.08 204.49 111.40 204.60 C 123.35 204.72 152.07 204.84 158.71 205.16 C 159.51 205.20 160.22 204.66 160.39 203.88 C 162.15 196.58 164.67 189.49 167.91 182.72 Z" fill="none" node-id="264" stroke="#17326f" stroke-linecap="butt" stroke-width="1.54" target-height="22.48291" target-width="108.97432" target-x="58.935684" target-y="182.72"></path><path d="M 163.11 177.09 C 163.69 173.79 164.66 164.70 164.02 142.09 C 167.64 144.52 178.48 152.74 182.59 166.36 L 182.59 166.42 C 182.48 166.68 182.34 166.92 182.17 167.14 C 174.57 167.13 167.46 170.87 163.17 177.14" fill="#ffffff" fill-rule="nonzero" node-id="266" stroke="none" target-height="35.050003" target-width="19.479996" target-x="163.11" target-y="142.09"></path><path d="M 164.83 143.58 C 169.13 146.71 178.06 154.37 181.76 166.28 L 181.76 166.35 C 175.08 166.46 168.75 169.36 164.30 174.35 C 164.81 169.62 165.30 160.52 164.87 143.60 M 163.24 140.66 C 164.24 172.75 162.04 178.50 162.04 178.50 C 162.04 179.02 162.32 179.60 162.34 180.10 C 166.08 172.54 173.83 167.80 182.27 167.91 C 182.82 167.91 183.15 167.00 183.46 166.44 C 178.46 149.34 163.24 140.66 163.24 140.66" fill="#17326f" fill-rule="nonzero" node-id="268" stroke="none" target-height="39.440002" target-width="21.420013" target-x="162.04" target-y="140.66"></path><path d="M 174.63 193.00 C 172.92 193.00 171.24 192.50 169.81 191.56 L 169.69 191.48 C 168.82 190.88 168.06 190.14 167.44 189.29 C 165.60 187.13 163.94 181.62 163.68 176.89 C 165.91 171.78 174.34 167.17 181.50 167.17 L 181.75 167.17 L 182.82 167.17 C 184.47 172.70 184.81 178.54 183.82 184.23 C 183.77 184.47 183.71 184.71 183.64 184.95 L 183.55 185.29 C 183.43 185.77 183.21 186.53 183.20 186.53 C 182.13 190.37 178.62 193.01 174.63 192.97" fill="#ffffff" fill-rule="nonzero" node-id="270" stroke="none" target-height="25.841766" target-width="21.129593" target-x="163.68" target-y="167.17"></path><path d="M 181.50 167.91 L 182.21 167.91 C 183.71 173.16 184.00 178.69 183.05 184.07 C 183.05 184.27 182.96 184.49 182.89 184.72 L 182.80 185.08 C 182.68 185.54 182.46 186.28 182.45 186.31 C 181.74 188.78 179.91 190.77 177.50 191.67 C 175.09 192.57 172.39 192.27 170.24 190.86 L 170.24 190.86 L 170.24 190.86 C 169.41 190.31 168.69 189.62 168.11 188.81 L 168.11 188.81 L 168.11 188.81 C 166.63 187.07 164.89 182.01 164.59 177.11 C 166.82 172.31 174.80 168.02 181.59 168.02 M 181.59 166.46 C 173.92 166.46 165.19 171.46 162.98 176.82 C 163.23 181.92 164.98 187.59 166.90 189.82 C 167.59 190.78 168.45 191.60 169.43 192.25 L 169.43 192.25 L 169.43 192.25 C 172.01 193.93 175.23 194.27 178.11 193.19 C 180.99 192.10 183.18 189.70 184.00 186.74 C 184.00 186.74 184.24 185.96 184.36 185.47 C 184.48 184.98 184.57 184.73 184.63 184.36 C 185.67 178.37 185.27 172.22 183.47 166.42 C 182.93 166.42 182.36 166.36 181.82 166.35 L 181.55 166.35" fill="#17326f" fill-rule="nonzero" node-id="272" stroke="none" target-height="27.92369" target-width="22.686401" target-x="162.98" target-y="166.35"></path><path d="M 108.36 98.82 C 108.36 102.54 113.67 105.56 120.21 105.54 C 126.75 105.52 132.03 102.54 132.03 98.77" fill="none" node-id="274" stroke="#17326f" stroke-linecap="round" stroke-width="2" target-height="6.790001" target-width="23.669998" target-x="108.36" target-y="98.77"></path></svg>